<svg xmlns="http://www.w3.org/2000/svg" width="64" height="64"><path fill="#59F" d="M0 0h64v64H0V0z"/><g transform="translate(-8.8409 -9.5206) scale(1.2879)"><path fill="#FFF" d="m63.507 17.536-9.293 9.293c-.272.272-.147.737.225.836.042.011.085.017.129.017h9.293c.276 0 .5-.224.5-.5v-9.293c-.001-.385-.417-.626-.751-.433a.4994.4994 0 0 0-.103.08Z" style="transform-origin:50.236px 31.66px" transform="rotate(-90 0 0)"/><rect width="4.002" height="11.947" x="31.466" y="15.465" style="fill:#fff;transform-box:fill-box;transform-origin:50% 50%" transform="rotate(45 -5.4048 6.482)"/></g><path fill="#FFF" d="m41.738 23.136 3.636-3.636c-3.254-2.957-7.549-4.783-12.282-4.783-10.119 0-18.352 8.233-18.352 18.352s8.233 18.353 18.352 18.353c5.387 0 10.225-2.348 13.585-6.056l-3.641-3.641c-2.423 2.778-5.977 4.545-9.944 4.545-7.279 0-13.201-5.922-13.201-13.201 0-7.279 5.922-13.201 13.201-13.201 3.313 0 6.328 1.243 8.646 3.268Z" style="transform-origin:30.7085px 33.0695px" transform="rotate(-45 0 0)"/></svg>
